<svg id="JT_logo_2016_1_linie_sort_no-payoff" xmlns="http://www.w3.org/2000/svg" viewBox="0 0 322 50"><defs><style>.cls-1{fill:#464646;}</style></defs><g id="JESPERS_TORVEKØKKEN" data-name="JESPERS TORVEKØKKEN"><path class="cls-1" d="M5,24.85a4.62,4.62,0,0,0,5-5v-15H8.4V19.79c0,2.34-1.22,3.64-3.44,3.64a3.73,3.73,0,0,1-3.4-2l-.16-.3L.19,22l.14.25A5.16,5.16,0,0,0,5,24.85"/><polygon class="cls-1" points="28.15 23.23 17.62 23.23 17.62 17.95 26.71 17.95 26.71 16.55 17.62 16.55 17.62 6.26 27.75 6.26 27.75 4.87 16.1 4.87 16.1 24.63 28.15 24.63 28.15 23.23"/><path class="cls-1" d="M43.39,19.76c0-2.63-1.28-4.24-4.73-5.93L36.94,13c-2.5-1.22-3.52-1.91-3.52-3.81A3.19,3.19,0,0,1,36.86,6a4.34,4.34,0,0,1,4.08,2.17l.16.25,1.2-.7-.16-.27a5.72,5.72,0,0,0-5.28-2.85c-2.85,0-4.92,1.91-4.92,4.53s1.8,3.85,4.34,5.09l1.75.85c2.9,1.39,3.88,2.56,3.88,4.65,0,2.26-1.73,3.67-4.51,3.67a5.82,5.82,0,0,1-5.28-3.19L32,20l-1.29.72.14.26a7.13,7.13,0,0,0,6.58,3.91c3.64,0,6-2,6-5.09"/><path class="cls-1" d="M109.31,19.76c0-2.63-1.28-4.24-4.73-5.93L102.86,13c-2.5-1.22-3.52-1.91-3.52-3.81A3.19,3.19,0,0,1,102.78,6a4.34,4.34,0,0,1,4.08,2.17l.16.25,1.2-.7-.16-.27a5.72,5.72,0,0,0-5.28-2.85c-2.85,0-4.92,1.91-4.92,4.53s1.8,3.85,4.34,5.09l1.75.85c2.9,1.39,3.88,2.56,3.88,4.65,0,2.26-1.73,3.67-4.51,3.67A5.82,5.82,0,0,1,98,20.24L97.89,20l-1.29.72.14.26a7.13,7.13,0,0,0,6.58,3.91c3.64,0,6-2,6-5.09"/><path class="cls-1" d="M49.79,19.64h2.26c5.87,0,8-3.81,8-7.37,0-4.5-3.12-7.4-8-7.4H48.28V24.63h1.51Zm0-13.37h2.15c5.71,0,6.56,3.76,6.56,6s-.85,6-6.56,6H49.79Z"/><polygon class="cls-1" points="66.4 17.95 75.5 17.95 75.5 16.55 66.4 16.55 66.4 6.26 76.54 6.26 76.54 4.87 64.89 4.87 64.89 24.63 76.94 24.63 76.94 23.23 66.4 23.23 66.4 17.95"/><path class="cls-1" d="M82.92,19.64h2.39c.55,0,1.08-.05,1.54-.09l4.27,5.08H93l-4.57-5.44a6.9,6.9,0,0,0,4.81-6.92c0-4.5-3.13-7.4-8-7.4H81.4V24.63h1.52Zm0-13.37H85.2c4.17,0,6.57,2.18,6.57,6s-2.4,6-6.57,6H82.92Z"/><polygon class="cls-1" points="136.38 4.61 122.59 4.61 122.59 6.01 128.73 6.01 128.73 24.38 130.24 24.38 130.24 6.01 136.38 6.01 136.38 4.61"/><path class="cls-1" d="M147.79,4.39a10,10,0,0,0-10.11,10.1,10.11,10.11,0,1,0,20.21,0,10,10,0,0,0-10.1-10.1m0,18.78a8.43,8.43,0,0,1-8.57-8.68,8.57,8.57,0,1,1,17.13,0,8.43,8.43,0,0,1-8.56,8.68"/><path class="cls-1" d="M174.79,12c0-4.5-3.13-7.41-8-7.41h-3.91V24.37h1.51v-5h2.4a14,14,0,0,0,1.53-.1l4.27,5.08h1.92L170,18.93A6.88,6.88,0,0,0,174.79,12M164.42,6h2.29c4.17,0,6.56,2.19,6.56,6s-2.39,6-6.56,6h-2.29Z"/><polygon class="cls-1" points="185.74 21.69 178.99 4.61 177.4 4.61 185.45 24.85 185.97 24.85 194.02 4.61 192.49 4.61 185.74 21.69"/><polygon class="cls-1" points="199.68 17.7 208.78 17.7 208.78 16.3 199.68 16.3 199.68 6.01 209.82 6.01 209.82 4.61 198.17 4.61 198.17 24.38 210.22 24.38 210.22 22.98 199.68 22.98 199.68 17.7"/><polygon class="cls-1" points="227.17 4.61 225.35 4.61 216.2 16.23 216.2 4.61 214.69 4.61 214.69 24.38 216.2 24.38 216.2 18.46 218.52 15.54 225.92 24.38 227.87 24.38 219.47 14.4 227.17 4.61"/><path class="cls-1" d="M251.13,5.19l-1-1-2.49,2.54A10.17,10.17,0,0,0,241,4.39a10,10,0,0,0-10.11,10.1,10.07,10.07,0,0,0,2.51,6.76l-2.52,2.57,1,1,.21-.21,2.31-2.36A10.17,10.17,0,0,0,241,24.6a10,10,0,0,0,10.1-10.11,10.05,10.05,0,0,0-2.5-6.75ZM241,5.82a8.41,8.41,0,0,1,5.59,2L234.46,20.22a8.76,8.76,0,0,1-2-5.73A8.44,8.44,0,0,1,241,5.82m0,17.35a8.58,8.58,0,0,1-5.63-2c.83-.79,3.44-3.45,12.21-12.4a8.74,8.74,0,0,1,2,5.72A8.43,8.43,0,0,1,241,23.17"/><polygon class="cls-1" points="268.75 4.61 266.93 4.61 257.78 16.23 257.78 4.61 256.27 4.61 256.27 24.38 257.78 24.38 257.78 18.46 260.1 15.54 267.5 24.38 269.45 24.38 261.05 14.4 268.75 4.61"/><polygon class="cls-1" points="285.81 4.61 284 4.61 274.85 16.23 274.85 4.61 273.34 4.61 273.34 24.38 274.85 24.38 274.85 18.46 277.17 15.54 284.57 24.38 286.52 24.38 278.12 14.4 285.81 4.61"/><polygon class="cls-1" points="291.91 17.7 301.01 17.7 301.01 16.3 291.91 16.3 291.91 6.01 302.05 6.01 302.05 4.61 290.4 4.61 290.4 24.38 302.45 24.38 302.45 22.98 291.91 22.98 291.91 17.7"/><polygon class="cls-1" points="320.44 4.61 320.44 21.33 307.58 4.26 307.49 4.13 306.92 4.13 306.92 24.38 308.34 24.38 308.34 7.66 321.2 24.73 321.29 24.85 321.86 24.85 321.86 4.61 320.44 4.61"/></g></svg>