<?xml version="1.0" encoding="utf-8"?>
<!-- Generator: Adobe Illustrator 28.2.0, SVG Export Plug-In . SVG Version: 6.00 Build 0)  -->
<svg version="1.1" id="Layer_1" xmlns="http://www.w3.org/2000/svg" xmlns:xlink="http://www.w3.org/1999/xlink" x="0px" y="0px"
	 viewBox="0 0 107.7 104.3" style="enable-background:new 0 0 107.7 104.3;" xml:space="preserve">
<style type="text/css">
	.st0{fill:#FFFFFF;}
</style>
<path class="st0" d="M23.6,92.7c-1.4-1-1.3-0.5-2.4-1.4c1.2,0.5,2.4,1,3.6,1.5l0.1,0.1c-0.8-0.4-0.3,0.6,1,1.1l-0.5-0.1
	c0.7,0.2,1.4,0.6,2,1.1c-1-0.5,0.4,0.5,0.5,0.7c-1.7-1-3.4-2.1-5-3.3C23,92.4,23.2,92.4,23.6,92.7 M44.3,0.9L45,0.7
	C44.8,0.8,44.5,0.8,44.3,0.9 M20.4,90.9l-1.1-0.5C19.7,90.6,20,90.7,20.4,90.9 M20.4,90.9l0.8,0.4L20.9,91
	C20.7,91,20.6,91,20.4,90.9 M24.9,92.7l0.8,0.3c-0.8-0.4-1.6-0.9-2.6-1.5C23.6,91.9,24.2,92.3,24.9,92.7 M19,89.4
	c-1.1-0.7-0.9-0.2-2.3-1.5c0.7,0.4,1.1,0.3-0.2-1.1c-1.7-1.6-3.2-2.8-4.7-4.2c-1.5-1.4-2.9-2.9-4.1-4.5c0.1-0.3-1.7-3.3-2.2-4.9
	c0.7,0.8,1.3,1.7,1.8,2.7c-0.4-0.7-1-2-1.4-3l-0.6-0.2c-1.9-4.3,0.8,0.9,0.1-1.1c-0.5-1.2-0.9-1.5-1.2-2.3c1.5,3.4-0.8-0.2,0.7,3.3
	c-0.5-0.4-1.4-2.4-1.7-3.7c-0.2-1.5,0.6,1.1,1.1,1.3c-0.2-0.6-0.5-1.2-0.9-1.7c-0.7-2.3-1.8-4.7-1.6-6.2c-0.2-0.9-0.5-1.7-0.8-2.5
	c-0.3-0.1,0.1,2.1,0.2,3c0-0.1,0-0.1,0-0.1c0.1,0.5,0.2,1,0.3,1.5c-0.2-1.4,0.4,0.1,0.6,0.9c0.2,0.5,0.5,1.6,0.3,1.5l-0.3-0.8
	C2,66.9,2.7,68,2.9,69.2c-0.1,0.1-0.2-0.3-0.3-0.4c0.6,1.1,1,2.3,2,4C4.3,72.5,4,72.2,3.8,72c0.6,1,1.1,2,1.6,3l1.7,3.6
	C7,78.3,6.8,77.9,7,78.1c0.8,1.2,1.1,2.2,0.6,1.8c0.7,0.9,1.3,1.8,1.9,2.8c0.6,1.1,1.4,2.1,2.4,3c2.3,1.8,4.8,3.4,7.4,4.7
	c-0.3-0.2-0.6-0.4-0.8-0.6C18.1,89,17.8,88.8,19,89.4 M0.9,62.9c0,0.1,0,0.2,0,0.2C0.9,63.1,0.9,63,0.9,62.9 M11.2,81.6
	c0,0.1,0.1,0.2,0.2,0.3C11.3,81.8,11.3,81.7,11.2,81.6 M7.4,76.2l-0.2-0.4L7.4,76.2L7.4,76.2 M20.4,89.8c0.3,0.1,0.4,0.2,0.7,0.3
	c-0.2-0.1-0.3-0.2-0.5-0.3S20.4,89.7,20.4,89.8 M20.8,90.8h-0.2l0.2,0.2C20.9,91.1,20.9,91,20.8,90.8 M2.7,55.2l-0.1-0.4
	C2.7,54.9,2.7,55,2.7,55.2 M9.4,79c0.4,0.8,1.2,1.7,1.8,2.6c-0.1-0.5,1.3,0.9-0.4-1c0.1,0.2,0.1,0,0.2,0.2c-0.7-1.1-1.4-2.1-2.1-3
	c-0.3-0.8,0.9,1.1,0.5,0.4c-0.6-0.9-1.2-1.9-1.7-3c-0.5-1-1-1.8-1.2-1.6c-0.3-0.5-0.5-1.1-0.6-1.7c-0.8-1.3-1.4-2.7-1.8-4.2
	C3.7,66,3.4,64.6,3,64.7c0.3,1,0.6,2,1,2.9l-0.4,0.1C4.2,69.3,4,67.8,4.8,70l-0.2-0.6c0.7,1.5,1.8,4.2,2.7,5.9
	c-0.2-0.1,0.4,1.1,0.1,1C7.9,77.3,8.6,78.2,9.4,79 M33,100.5c0.8,0.2,1.5,0.4,1.4,0.5l-0.9,0.3c-1.5-0.5-2.9-1.2-4.3-1.9
	c-1.2-0.6-2.2-1.2-3.7-2.2c-0.2-0.2,0.2,0,0.4,0.1c-2.2-1.2-5-3.5-6.5-4.5c-0.6-0.5-2-2-1.3-1.6c-0.4-0.2-0.7-0.5-1-0.8
	c0-0.2,0.8,0.6,0.9,0.5c-0.2-0.2-0.3-0.4-0.4-0.4c0.5,0.3,0-0.8,2,0.9c0.5,1-1.4-1.2-1.3-0.4c0.7,0.6,0.7,0.4,0.8,0.4
	c0.9,0.8,0.8,0.8,0.7,0.9c0.4,0.2,1.4,1.2,2,1.4c1.8,1.3-0.3,0.2,0.9,1.1l1,0.1c0.7,0.5,1.3,1,2,1.4c1.5,0.8,1.5,0.6,1.6,0.3
	s0.2-0.4,2,0.4c-0.6,0,0.6,1.1,2.2,2c-1.4-0.5-2.8-1.2-4.1-2c0.8,0.7,0.2,0.3-0.5,0s-1.5-0.9-1.2-0.4c1.2,0.5,2.4,1.1,3.5,1.9
	l-0.4-0.2c1.2,0.7,2.4,0.7,4,1.7C33.6,100.4,33.3,100.4,33,100.5 M31.5,99.7c0.3,0.3,0.7,0.4,1.1,0.6L31.5,99.7 M78.9,5.7
	c-0.2,0-0.3-0.1-0.5-0.2C78.7,5.7,79,5.8,78.9,5.7 M106.6,50.5c-0.1,0.1-0.1,0.2-0.1,0.3C106.6,50.8,106.7,50.7,106.6,50.5
	 M73.2,3.6L73.2,3.6H73H73.2z M49.2,103.9l-0.3,0.1C49.1,104,49.2,103.9,49.2,103.9 M89.7,88.9c-0.1,0-0.2,0-0.3,0.1
	C89.4,89.1,89.4,89.1,89.7,88.9 M56.8,104.1c-0.1,0.1-0.2,0.1-0.3,0.1C56.6,104.2,56.7,104.2,56.8,104.1 M95,79.3l-0.1,0.2l0.1-0.1
	L95,79.3z M97.3,76.8c-0.1,0.2-0.1,0.3-0.2,0.5C97.2,77.1,97.3,76.9,97.3,76.8 M103.2,65.4c0-0.2,0.1-0.3,0.1-0.6L103.2,65.4z
	 M28.5,94.8c-0.5-0.3-0.9-0.6-1.4-0.9L27,93.9C27,94,28.4,95.1,28.5,94.8 M99.6,29.3c0.3,0.6,0.6,1.3,0.7,2c-0.1-0.3-0.1-0.5,0-0.8
	C100.1,30.1,99.8,29.8,99.6,29.3 M107.8,51.1c-0.3-0.6-0.9-1-1.2-0.6c-0.3-0.9-0.5-1.8-0.5-2.7c0.2-0.2,0.3-1.6,0.6-0.7
	c-0.4-3.1-0.5,0.5-1-0.4c0.4,3.4,1,5.5,1.1,7.7h-0.1c0,0.6,0.1,1.1,0.1,1.7c0.2-1.4,0.9-1.2,0.5,0.5v-0.2c-0.4,1-0.3,3.1-0.7,4.7
	l0.2,1.1c-0.4,1.6-1.1,1.5-1.7,1.8c-0.4,1.9-0.7,3.8-0.9,5.7c-0.6,0.7-2.2,4-1.7,2.1c-0.2,0.8-0.2,1.6,0,2.4c0,0.7-0.2,1.6-1.6,3.1
	l0.2-1c-0.9,1.6-1.9,3.6-3,5.4c-0.8,1.3-1.7,2.6-2.8,3.6c0-0.9-0.9-0.2-2.1,0.7s-2.5,1.8-3.1,1.6c0.3,0-0.6,1-0.7,1.3
	c-0.4,0.1-0.8,0.5-1,0.9c1.2-0.8,0,1.5,1.7-0.6c-0.8,2-2.2,3.7-4.1,4.9l-0.2-0.4c0.7-0.4,1.3-0.9,2-1.4c-0.4-0.1,0.6-0.9,0.9-1.3
	c-1.8,1.3-1.9,1-1.9,0.8s0-0.4-1.8,0.9c-0.2,0.5,0,0.2-0.9,1c0.5-0.3,0.4-0.6-0.4-0.1l-0.5,0.8c-1.7,0.3,1.9-1.8,0.5-1.5
	c1.2-1.2,3.4-3.2,2.6-3.3c-0.8,0.5-1.4,1.2-1.8,1.9c-0.5,0.8-1.2,1.5-2,1.9H82c-0.8,0.7-0.7,1.1-1.1,1.5c-0.1-0.1-0.4,0-1,0.3
	c-1.2,1.3-2.2,1.9-3.5,3.1c1.2-0.7,2.4-1.3,3.6-1.9c1.3-0.5,2.5-1.3,3.6-2.1c-0.5,0.6-3.1,2.3-3,2.9l-0.2-0.4
	c-1.3,1-2.7,1.8-4.2,2.4l0.9-0.7c-2.1,1.3-4,1.1-5.6,2.3c0.4-0.1,0.8-0.2,1.2-0.4c-1.2,0.5-2.4,0.9-3.6,1.2
	c-0.8,0.5-1.7,0.9-2.6,1.3c0-0.2-1.8,0.2-1-0.3c-2.1,0.1-2.9,0.8-4.1,1.1c-1.1-0.1-0.6-0.2,0.1-0.3s1.7-0.4,1.8-0.7
	c-2.9,0.3-5.8,0.7-7.5,1.1c0.6,0.1,0.9,0.1,0.8,0.2c-0.6-0.1-1.3-0.1-1.9,0l-0.4,0.2c-1.1-0.2-0.9-0.3,0-0.5c-1,0-2.3,0.4-3.3,0
	c1.8-0.2,4,0.1,4.9-0.1c-1.3,0.1-2.5,0.1-3.8-0.2c-1.5-0.3-3-0.5-4.5-0.5c0-0.1,0.7-0.2-0.1-0.3c-2-0.2-0.6,0.4-1.3,0.5
	c1.1,0,2.2,0.2,3.2,0.6l-0.4,0.1c-0.1-0.1-1.1-0.2-1.3-0.3l-0.3,0.3c0.2-0.4-1.4-0.9-2.7-1c1.2,0.5,0.9,0.4,1.2,0.9
	c-1.8,0.1-1.9-0.8-4-0.7c0.2-0.1,1.9,0.2,0.4-0.2c-1.2-0.3-1.1,0-2-0.1c1-0.1,0.8-0.4,1.9-0.5c1,0.2,2,0.4,3,0.4
	c-0.6-0.2-1.2-0.4-1.7-0.6c1.8,0.3,1.4-0.1,1.5-0.2c-3-0.9-2.4,0.1-4.4-0.5c-1,0,1.8,0.5,0.3,0.4c-1.8-0.5-0.5,0.1-2.6-0.3h0.4
	c-0.6-0.3-1.3-0.5-2-0.5c-0.8-0.2,0.5,1.4-2.7,0.2c0.2,0,0.3,0,0.3-0.1c1.4-0.4,2.7-0.9,4-1.5c-3.5-1.1-6.9-2.6-10-4.6
	c-0.5-0.9,2.6,1,2.5,0.6c0.5,0.3,1,0.6,1.5,0.9c-0.2,0.2-3.3-1.6-2.1-0.5c2.8,1.2,4.1,2,7,2.5c-0.7-0.5-1.5-0.8-2.3-1
	c-0.9-0.3-1.7-0.6-2.5-1.1c-1.3-0.6-2.7-1.3-3.9-2c-0.6-0.2-1.1-0.3-1.2-0.2l0.3,0.2l-0.6-0.2l-1-0.7l-0.4-0.2l0.2,0.1
	c-0.3-0.2-0.7-0.5-1-0.8l-0.4-0.3c0.1,0,0.1,0,0.2,0l-0.3-0.2c-1.3-0.6-2.5-1.3-3.7-2.1c-0.7-0.5-1.4-1-2-1.6c0.5,0.4,1,0.8,0.9,0.5
	c-0.8-1.2-1.8-2.3-3-3.2l1,1c-0.8-0.6-1.7-1.2-2.5-1.9c-0.6-1,1.2,1,1.7,1.2c-1.9-1.6-2.6-3.6-3.6-4.2c0.1-0.3,0.3-0.8-0.7-2
	c0.4,1.1-0.7-0.7-0.4,0.3c-0.4-0.4-0.9-1.5-1.1-1.5h0.2c-0.7-1.5-1.6-2.8-2.8-3.9c-1.2-2.2-2.2-4.4-3-6.8c0.2-0.7,0.2-1.4-0.1-2
	c-0.4-0.4-1.1-2.7-1.4-2.8c0.4,1.9,0.6,1.4,1,2.5c0,1-0.2,0.2,0,1.5c-0.1-0.5-0.5-1.6-0.8-2.8c-0.3-0.9-0.5-1.9-0.6-2.9l0.1,0.4
	c-0.2-1.8,0.3-2.2-0.5-5.2c-0.1-0.5-0.2-0.9-0.3-1.4c0,0.1,0.1,0.1,0.1,0.1C2.7,52.9,3,53.6,2.8,51c0,0.2,0,0.1,0.1,0.3
	c0.1-1.5-0.1-3-0.1-4.1c0.2-0.7,0.2,0.2,0.3,0.6c0.2-2.6,0.3-5.4,0.4-7c0.1-0.5,0.3-1.1,0.5-1.6c-0.2,1-0.2,2.2,0,1.9
	c0.1-0.7,0.2-1.3,0.3-2c0,0.3,0.1,0.7,0,1c0.1-0.4,0.2-0.7,0.2-1.1c-0.1-0.1-0.1,0,0.2-0.7c0.1-0.3,0.2-0.6,0.2-0.9
	c0.1-0.3,0.1-0.5,0-0.8c0.2-0.5,0.4-1,0.6-1.4c0.2-1.1,0.5-2.2,0.9-3.2c0-0.2-0.5,0.9-0.6,1.3C6,32.7,6.2,32,6.6,31.3
	c0.5-0.8,0.9-1.6,1.3-2.5c0.5-1.1,1-2,1-1.5c0.9-1.9,2-3.7,3.2-5.4c1.2-1.8,2.4-3.3,3.2-4.3c0.6-0.6,1.7-1.8,1.1-1
	c1.7-1.9,3.5-3.7,5.5-5.3c-0.3,0.3-0.7,0.5-1,0.8c1.7-1.4,3.5-2.8,5.4-3.9c-0.3,0.2-0.5,0.3-0.5,0.4c0.2-0.2,1.1-0.7,1.7-1.1
	c0.4-0.2-0.5,0.3-0.3,0.2C29.5,6.3,31.9,5,34.4,4c2.1-0.9,4.3-1.6,6.5-2.2C40.6,1.9,40.3,2,40,2.1C40.5,2,41,1.8,41.6,1.7
	s1.8-0.5,2.8-0.6c0.1,0,0.6-0.1,0.1,0c1.6-0.3,2.9-0.5,4.2-0.6c1.6-0.2,3.2-0.3,4.8-0.3c-1.6,0-3.2,0.2-4.8,0.4l1.2-0.1h-0.3
	c1.3-0.1,2.6-0.2,4-0.2c10.5,0,20.8,3.3,29.3,9.5l0.3,0.2l-0.2-0.1l0.5,0.4c1,0.7,2.5,1.6,3.8,2.6l0.1,0c-0.2-0.2,0.5,0.4,0.8,0.7
	l0,0c0.9,0.7,1.8,1.4,2.5,1.9c-0.2-0.3-0.4-0.6-0.7-0.8c-0.3-0.2-1.8-1.6-1.8-1.3c-0.8-0.7-1.6-1.4-2.5-2.1c0.9,0.9-0.8-0.4-1.1-0.5
	c-0.3-0.4-1.5-1.1-1.3-1.1c0.3,0.3,0.6,0.5,0.9,0.7c0.6,0.3,0.1-0.1-0.3-0.4S83.2,9.1,84,9.5c-2-1.3-4-2.5-6.2-3.5l1,0.6
	c-0.8-0.5-2.9-1.5-3-1.6c0.7,0.3,1.4,0.7,2.2,1.1c0.1-0.1-2-1-2-1.1c-0.8-0.3-1.7-0.6-2.5-0.9l1.1,0.5c-0.7-0.2-2.9-1.3-4.7-1.8
	c1.5,0.4,3,1,4.4,1.6c1.3,0.5-0.7-0.5,0.5,0c-0.5-0.3-1-0.5-1.5-0.6l-0.5-0.2c1.8,0.6,3.5,1.2,5.2,2l-0.3-0.1l3.6,2
	c-0.4-0.3-0.8-0.5-1.2-0.7c0-0.1,1.1,0.5,1.5,0.7c-1-0.7-0.1-0.2-0.8-0.6c0.7,0.4,1.5,0.8,2.1,1.2c0.4,0.3-0.4-0.1-0.4,0
	C83.4,8.5,83.7,9,85,9.7c-1.6-1.2,0.6,0.1,1.2,0.4L85.9,10c0.5,0.2,1,0.5,1.3,0.9c-0.7-0.5-1.3-0.9-1.2-0.7c0.4,0.3,0.9,0.6,1.4,1
	L86.9,11c0.7,0.5,1.4,1.1,2.1,1.6c0.5,0.2,1,0.4,1.6,0.6c0.5,0.5,1,1,1.7,1.4l-0.3-0.1c0.9,1,1.9,2,3,2.8c0.5,0.7-4.9-3.8-0.7,0.5
	c1.5,1.7,1.3,0.8,2.3,1.7c0,0-0.1,0,0,0.1c0.4,0.5,0.9,1,1.4,1.4c-0.3-0.5-0.7-1-1.1-1.4c0.4,0.1,1.3,1.7,1.9,2.2
	c-0.9-0.6,1,1.7,0.4,1.1c0.8,1.6,1.9,3,3.1,4.4c0.2,1.5,1.2,2.1,1.9,4.3c-0.1-0.3-0.5-0.9-0.6-1.3c-0.8-1,0.8,2.2-0.3,0.5
	c0.2,0.4,0.2,0,0-0.4c-0.3-0.7-0.8-1.2-0.9-1c0.2,0.6,0.3,1.2,0.5,1.8l-0.3-0.5c0.3,0.9,0.5,1.8,0.7,2.7c0.1,0,0.1-0.2,0.1-0.4
	c1.1,3,2,6.1,2.6,9.2c0.6,0.2,1,1.9,1.3,3.8c0.2,1.8,0.4,3.6,0.7,5.3 M96.3,77.3c-0.3,0.4-0.5,0.8-0.8,1.2c0,0,0.1,0,0.4-0.2
	S96.2,77.6,96.3,77.3 M39.8,98.9l-0.9-0.3c0.1,0.1,0.1,0.3,0.5,0.5L39.8,98.9z M50.8,101.2c0.1-0.1-0.3-0.2-0.7-0.2s-1-0.1-1.6-0.2
	c0,0.1-0.1,0.1-0.3,0.1c0.5,0.1,0.9,0.2,0.7,0.5c-1.4-0.7-1.3,0.3-2.9-0.1c-0.5,0.2,1.7,0.5,2.2,0.5
	C48.8,101.5,50.7,101.6,50.8,101.2 M52.8,101.2c1.3,0.1,2.7,0.1,4,0c0.4-0.1,1.1-0.4,1.8-0.7l-1.3,0.1l0,0c0.4,0.2-0.6,0.5-4.1,0.5
	L52.8,101.2 M62.1,100.7c1.4-0.1,1-0.3,1.2-0.5c-0.5,0.1-0.9,0.2-1.4,0.3C62,100.5,62.1,100.6,62.1,100.7 M78.4,95.8
	c0.7-1,3.3-2.7,2.4-2.4c-0.7,0.4-1.5,1.3-2.3,1.3c0.5-0.3,0.9-0.6,1.4-0.9L78.7,94c0.1,0,0.2-0.1,0.3-0.2c-0.8,0.5-1.7,1-2.6,1.4
	c0.6-0.1,0.8,0.1-0.3,0.8c0.1-0.2-0.5-0.1,0-0.5l-0.7,0.2c-0.7,0.3-1.4,0.6-2.1,1c0,0.1,0,0.1,0.1,0.2c1.8-1.4,0.8,0.4,2.2-0.6
	c-0.7,0.6-1.5,1.1-2.4,1.5c0.7-0.6-0.5-0.5-1.8-0.2c-0.5,0.3-2.1,0.8-3,1.2c0.4,0.2-0.3,0.6,1.2,0.2c-0.8,0.4-1.6,0.6-2.5,0.7
	c0.4-0.2,1.1-0.4,1-0.5c-0.6,0-1.3,0-1.9,0.1c-0.3,0.1-0.7,0.2-1,0.3c0.1,0,0.2,0,0.3,0c-0.3,0.2-0.7,0.4-1,0.5
	c1.5-0.5,0.7,0,0.8,0.2c0-0.4-1,0.2-1.5,0.3l1.2,0.1c-0.5,0.3-2,0.1-1.6,0.4c1.9-0.2,3.7-0.7,5.4-1.4l-1,0c2.3-0.9,1.6,0.1,4.3-0.9
	c1-0.6,3.7-1.6,3.7-2.2C76.7,96.7,77.6,96.4,78.4,95.8 M103.2,65.9c0.8-1.8,0-1.9,0-2.4c-0.1-2-1,1.7-1.5,1.3c-0.5,1.5-1,3-1.6,4.5
	c0,0.1,0,0.2,0,0.3c-0.1,0.3-0.2,0.7-0.3,1l0,0c-0.1,0.3-0.3,0.5-0.5,0.7c-0.5,1.2-1.2,2.4-1.8,3.6c0.5-0.5,0.9-1.1,1.2-1.7
	c0.3,0.5-1,2.5-1.5,3.7c0-0.1,0-0.2,0-0.3c-1.4,2.9-0.7,0-2.2,2.7L95,79.4l0-0.5c-2.5,3.6-5.5,6.9-8.8,9.8h0c1.5-0.8,2.9-1.9,4-3.2
	l-0.2,0.3c1-0.8,1.9-1.7,2.5-2.9c0.7-1.2,1.5-2.4,2.5-3.4c-0.5,1-0.8,2.1-0.9,3.1c0.3-0.5,0.5-1,0.8-1.4c0.1,0.7,0.9-0.8,1.6-1.8
	l-0.1,1.2c-0.6,0.6-1.2,1.2-1.6,1.9c-1.2,0.7-2.2,1.6-3.1,2.7c0.4,0.2,2.5-2.4,2-0.9c0.6-1.2,1.1-1,1.8-2.2
	c-0.6,1.2,0.2,0.6-0.1,1.6c0.5-0.6,0.9-1.2,1.3-1.9c0.2,0-1.8,2.8-0.2,1.6c0.4-0.8,2.1-2.7,1.7-3h0.2c1-1.4-0.1-1,1.2-2.6
	c-0.2-0.1-0.5,0.1-0.9,0.8c-0.1,0.7-0.4,1.4-0.7,2c-0.6,0.3,0.9-1.3-0.1-0.9c-0.5,0.2-1.8,3-1.8,1.8c0.4-0.4,0.7-0.9,1.1-1.3
	c-0.3-0.3,0.4-1.3,0-1.5c0.4-0.9,1.4-1.5,1.5-2.6c0-0.5-0.9-0.1,0.2-1.5c0.8-0.8,1.5-1.7,2-2.7c0.5-1,0.9-2.1,1.3-3.2
	c0.1-0.4,0.1-0.9,0.2-1.3c-0.3,0-0.8,2.3-0.9,1.4c0.2-0.6,0.4-1.3,0.6-1.9l0.1,0.2c0.2-0.6,0.3-1.3,0.4-1.9c0.1,0.7-0.5,2,0.1,1.9
	c0.4-0.6,0.6-1.2,0.8-1.8C103.2,65.7,103.2,65.9,103.2,65.9 M103,60.2c0.5-1.3,0.4,0,0.7-1.8c-0.5,0-0.3-1.2-0.3-2.5
	c-0.2,1.4-0.4,2.8-0.6,4.2C102.8,60.2,102.9,60.3,103,60.2 M103.6,55.2c0.4-0.1,0.4-2,0.5-2.6c-0.1-0.4-0.1-1-0.2-1.4
	c0,0.1-0.1,0.2-0.2,0.3c0,0.9-0.1,1.9-0.1,2.8C103.7,54,103.7,54.3,103.6,55.2 M105.4,47.7c0.2-0.9,0.2-1.7,0.2-2.6
	c-0.1-0.1-0.9-2.7-1.3-3.4c0,0.6,0,1.2,0,1.9c-0.2-1.4-0.5-2.8-0.9-4.1c-0.2,0-0.1,2,0.4,2.1c-0.2,0.3-0.7-1.9-0.7-0.5
	c-0.5-1.8-1-3.6-1.2-5.4l0.4-0.3c-0.3-1.4-0.8-0.7-1.1-2.3c0.8,1.8,0.4-0.5,1,1c0-0.5,0.5-0.2-0.1-1.7c-1.1-1-0.3-1.7-1.3-2.6
	c-0.2-0.8,0.7,0.7,0.1-0.9c-1.1-1.6-1.3-1.4-1.7-1.3c0.7,1.6,1.4,1.5,1.9,2.9c-0.6-0.8-1.2-1.5-1.9-2.3c0.1,0.4,0.3,0.8,0.5,1.1
	c-0.2-0.4-0.5-0.8-0.9-1.2c-0.1-0.1-0.1-0.1-0.2-0.2c2.2,4.5,3.8,9.3,4.6,14.2c0.6,2,1,4.1,1.1,6.2c0.4-0.5,0.5-2.6,0.5-3.6
	c0.2,0.3,0.3,0.6,0.5,0.9l-0.3,0.6L105.4,47.7 M94.5,82.8L94.5,82.8L94.5,82.8 M40.7,1.8L42,1.4L40.7,1.8 M72.7,100.6l0.4-0.2
	L72.7,100.6 M18.6,88.4c-0.1-0.1-0.2-0.1-0.2-0.2L18.6,88.4 M75.8,96.9L75.8,96.9 M104.3,43.6V44C104.3,43.9,104.3,43.8,104.3,43.6
	 M70.8,3c-0.7-0.2-1.2-0.3-2.3-0.7c-0.4-0.3,1.8,0.5,2.4,0.5C69.5,2.4,68,2,66.5,1.7l2.5,0.8C69.6,2.7,70.2,2.8,70.8,3 M71.9,3.1
	h-0.1l-1.2-0.4h0.1L71.9,3.1z M103.7,33.4l0.5,0.7l-0.3-0.6L103.7,33.4z M104.7,32.9l-0.4-0.5c0.3,0.5,0.5,1.1,0.8,1.6
	C104.9,33.6,104.8,33.2,104.7,32.9 M104.9,44.4l-0.3-1C104.7,43.6,104.7,45,104.9,44.4 M106.8,52.4c0,0,0.1-0.1,0.1-0.1
	C106.8,52.3,106.8,52.3,106.8,52.4 M106.9,52.3c0.3-0.1,0,2.1,0.3,0.7C107.2,51.9,107,52.1,106.9,52.3 M102,65.2
	c-0.3,0.4-0.4,0.9-0.5,1.3C101.8,66.1,101.9,65.6,102,65.2 M99.5,72l0.2-0.4c0,0.5,0,0.3,0.1-0.2c0.2-0.5,0.1-0.5,0-0.6v-0.4v0.4
	C99.5,71.6,99.3,72.1,99.5,72 M105.5,67.7l0.1-0.4l-0.2-0.8L105.5,67.7z M91.8,87.5c-2.5,1.9,0.5,0.2-1.2,1.8c1.1-0.8,1.9-1,1.9-0.8
	C93.2,87.2,90.2,89.5,91.8,87.5 M73.3,97.6c-0.1,0.1-0.3,0.2-0.4,0.3C73.1,97.8,73.2,97.7,73.3,97.6 M86.1,92.7
	c0.1-0.1,0.1-0.2,0.2-0.2L86.1,92.7 M86.1,92.7c-1.1,1.2-3.7,2.9-3.3,3.1c1-0.5,1.8-1.1,2.5-2l-0.4,0.2
	C85.4,93.7,85.8,93.2,86.1,92.7 M76.3,96.1c0.6-0.2,1.1-0.5,1.6-0.9C77.6,95.2,76.2,96,76.3,96.1 M57.6,103.8c0.5,0.3,0.5,0,1.7-0.1
	c-0.4,0.2-0.8,0.3-1.2,0.4c1,0,1.8-0.5,1.5-0.6C59,103.6,58.3,103.7,57.6,103.8 M12.8,82.8c0.3,0.3,0.6,0.7,0.9,1l-0.3-0.4
	L12.8,82.8z M9.4,76.7c0.3,0.7,0.7,1.3,1.2,1.9C9.8,77.4,10.2,77.9,9.4,76.7 M8.8,79.1L8,77.9v0.1L8.8,79.1z M4.6,70
	c-0.2-0.4-0.4-0.8-0.5-1.1V69c0.2,0.4,0.3,0.8,0.5,1.1L4.6,70z M2.4,62.4c0.1,0.2,0.2,0.5,0.3,0.7C2.5,62.8,2.5,62.6,2.4,62.4
	 M0.5,58.1c0-1.5,0.5,2,0.2-0.7c0.1-0.3,0.5,1,0.6,2.2C1.1,59.5,1,58.4,1,59.2C1.3,60,1.2,60.3,1.4,60c0.3,0.8,0.6,1.6,1,2.4
	c-0.5-1.6-0.8-5.2-1.2-7.4c-0.4-1.2-0.7-0.4-1.1-0.4C0,54.8,0.2,58,0.5,58.1 M0.7,61.8c0.1-0.1-0.2-0.8-0.3-1.3
	C0.5,60.9,0.5,61.4,0.7,61.8 M3,43.9c0,0.6-0.1,1.2-0.1,1.8c0-0.2,0.1-0.5,0.2-0.7C3,44.9,3,43.7,3,43.9 M2.7,46.5v-0.8
	C2.7,45.9,2.7,46.1,2.7,46.5 M3.1,44.9L3.1,44.9C3.1,45,3.1,45,3.1,44.9 M49.1,0.2l1-0.1c-0.9,0-2.8,0.3-3.4,0.4
	C47.1,0.4,48.6,0.3,49.1,0.2L49.1,0.2z M83.1,16.5c-1,7.9-4.1,11.1-4.1,11.1S78.9,29,66.3,29c-11.5,0-11-1.4-11-1.4
	C47.8,6.8,27,18.3,27,18.3v25.2c0,0,20.8,11.5,28.3-9.3c0,0-0.5-1.4,11-1.4c12.5,0,12.7,1.4,12.7,1.4s3.1,3.3,4.1,11.1
	c0,0,0.4,0.7,0.4,0.1V16.4C83.5,15.8,83.1,16.5,83.1,16.5 M83.3,82.1c0,0,0-1.2-1.7-1.2s-11.3-0.5-11.3-0.5s-1.7,0-1.7-1.5
	s1.8-1.5,1.8-1.5l11.9-0.2c0,0,1.7,0.1,1.7-1.3s-1.7-1.4-1.7-1.4l-11.9-0.1c0,0-1.8,0-1.8-1.5s1.7-1.5,1.7-1.5S80,71,81.7,71
	s1.7-1.2,1.7-1.2s0-1.2-1.6-1.2H69.5c-1.9,0.3-3.7,1.3-5.1,2.7c0,0-0.8,0.7-3.7,0.7H29.9c-2.1,0.2-3.7,2.2-3.4,4.3
	c0.2,1.8,1.6,3.2,3.4,3.4h30.8c2.9,0,3.7,0.7,3.7,0.7c1.3,1.5,3.1,2.4,5.1,2.7h12.2C83.3,83.3,83.3,82.1,83.3,82.1 M60.5,50.8
	c-1.2,0.2-2.3,0.6-3.2,1.3c0,0-0.9,0.7-4.1,0.7H30.2c-2.1,0.1-3.8,1.9-3.7,4.1c0.1,2,1.7,3.6,3.7,3.7h48.5c0,0,5.3,0.2,5.3-3.6
	c0-6-10-6.1-10-6.1L60.5,50.8z"/>
</svg>
